<?xml version="1.0" encoding="UTF-8"?>
<!DOCTYPE svg PUBLIC "-//W3C//DTD SVG 1.1//EN" "http://www.w3.org/Graphics/SVG/1.1/DTD/svg11.dtd">
<!-- Creator: CorelDRAW -->
<svg xmlns="http://www.w3.org/2000/svg" xml:space="preserve" width="210mm" height="190mm" style="shape-rendering:geometricPrecision; text-rendering:geometricPrecision; image-rendering:optimizeQuality; fill-rule:evenodd; clip-rule:evenodd"
viewBox="0 0 210 190"
 xmlns:xlink="http://www.w3.org/1999/xlink">
 <defs>
  <style type="text/css">
   <![CDATA[
    .fil1 {fill:#957F66}
    .fil0 {fill:white}
   ]]>
  </style>
 </defs>
 <g id="Layer_x0020_1">
  <metadata id="CorelCorpID_0Corel-Layer"/>
  <g id="_76602400">
   <polygon id="_76601848" class="fil0" points="127.858,25.0808 25.6686,34.9412 83.9346,178.813 204.5,145.647 "/>
   <path id="_76052752" class="fil1" d="M48.3054 43.3879l5.7005 12.8055 71.6273 -9.0463 -6.4025 -11.6488 -13.4666 1.2393c-5.5351,-10.9882 -9.9548,-18.4645 -13.1768,-22.513 -6.444,-7.972 -13.7144,-11.8966 -21.7694,-11.7312 -4.2134,0.0825 -7.6003,1.2807 -10.1617,3.6762 -2.6024,2.396 -3.8826,5.3702 -3.8826,9.0054 0,1.9413 0.4128,3.9655 1.1978,6.0722 1.9413,4.6676 4.7091,11.3594 8.3443,20.0755l-18.0103 2.0652zm-46.2231 30.3611l77.3277 113.761 126.319 -35.318 2.1892 -5.9482 -78.1538 -121.982 -28.3373 2.1897 1.1982 2.1476 25.0734 -2.3955 73.1973 118.966 -116.281 29.4107 -57.2523 -138.339 31.3524 -3.1396 5.2048 6.2786 -3.3874 -8.4677 -5.7004 0.3718c-0.95,-1.694 -1.2393,-2.9742 -0.826,-3.8831 0.3717,-1.0329 1.7764,-1.6525 4.2133,-1.8174l-1.0738 -2.7678c-1.2392,0.0825 -2.3135,0.2894 -3.2635,0.6197 -2.3545,0.702 -3.7176,1.9003 -4.1309,3.5937 -0.3303,1.3217 -0.041,2.9327 0.8265,4.8745l-27.4699 2.5194 -1.0738 4.1309 12.2269 31.9306 -32.1784 3.2635zm62.6634 -52.5018c-0.7846,-2.1067 -1.1978,-4.1309 -1.1978,-6.0722 0,-5.0808 2.9327,-7.6008 8.84,-7.6008 7.6417,0 13.5486,3.8831 17.6795,11.7312l-25.3217 1.9418zm-10.5335 29.4107l67.5379 -7.3939 0.7435 1.3217 -67.4139 8.014 -0.8675 -1.9418z"/>
  </g>
 </g>
</svg>
